<?xml version="1.0" encoding="utf-8"?>
<!-- Generator: Adobe Illustrator 26.0.0, SVG Export Plug-In . SVG Version: 6.00 Build 0)  -->
<svg version="1.1" id="Layer_1" xmlns="http://www.w3.org/2000/svg" xmlns:xlink="http://www.w3.org/1999/xlink" x="0px" y="0px"
	 viewBox="0 0 64 19.5" style="enable-background:new 0 0 64 19.5;" xml:space="preserve">
<style type="text/css">
	.st0{fill:#FFFFFF;}
</style>
<g>
	<g id="Layer_1-2">
		<polygon class="st0" points="9.9,7.2 9.9,3.9 6.1,3.9 6.1,13.8 8,15.6 13.2,15.7 13.2,11.9 9.9,11.9 9.9,10.9 13.2,10.9 13.2,7.2 
					"/>
		<polygon class="st0" points="23.5,7.2 23.5,11.9 22.6,11.9 22.6,7.2 18.8,7.2 18.8,11.9 17.9,11.9 17.9,7.2 14.1,7.2 14.1,13.8 
			16,15.6 27.3,15.7 27.3,7.2 		"/>
		<polygon class="st0" points="28.2,7.2 32,7.2 32,15.6 28.2,15.6 		"/>
		<polygon class="st0" points="28.2,3.9 32,3.9 32,6.2 28.2,6.2 		"/>
		<polygon class="st0" points="42.8,7.2 40.9,9.1 40.9,13.8 42.8,15.6 48.5,15.7 48.5,11.9 44.7,11.9 44.7,10.9 48.5,10.9 48.5,7.2 
					"/>
		<polygon class="st0" points="56,7.2 53.2,7.2 53.2,3.9 49.4,3.9 49.4,15.7 53.2,15.7 53.2,10.9 54.1,10.9 54.1,15.7 57.9,15.6 
			57.9,9.1 		"/>
		<polygon class="st0" points="36.7,7.2 36.7,3.9 32.9,3.9 32.9,13.8 34.8,15.6 40,15.6 40,11.9 36.7,11.9 36.7,10.9 40,10.9 
			40,7.2 		"/>
	</g>
</g>
</svg>
